<svg version="1.1" id="Layer_1" xmlns="http://www.w3.org/2000/svg" xmlns:xlink="http://www.w3.org/1999/xlink" x="0px" y="0px"
	 width="100%" viewBox="0 0 300 301" enable-background="new 0 0 300 301" xml:space="preserve">
<path fill="#0BA637" opacity="1.000000" stroke="none" 
	d="
M301.000000,29.000004 
	C301.000000,110.687561 301.000000,192.375122 300.645813,274.511902 
	C297.893646,279.088623 295.718445,283.366974 293.049225,287.310913 
	C288.151123,294.548218 280.439148,298.129211 273.000000,302.000000 
	C190.979111,302.000000 108.958206,302.000000 26.439714,301.644196 
	C17.572226,297.197144 9.908669,292.244751 4.914423,283.704620 
	C4.048041,282.118713 3.180410,280.867767 2.299423,279.436096 
	C2.286068,279.255402 2.100845,278.943909 2.141340,278.629822 
	C1.787891,277.877167 1.393946,277.438599 1.000001,277.000000 
	C1.000000,192.979111 1.000000,108.958206 1.346780,24.467245 
	C3.723705,21.026709 5.266462,17.502422 7.883730,15.199103 
	C13.634167,10.138450 19.927999,5.695259 26.000000,1.000000 
	C108.020897,1.000000 190.041794,1.000000 272.641998,1.337464 
	C281.751526,4.548670 288.871246,9.486887 294.056824,16.829786 
	C296.738525,20.627123 298.708466,24.927114 301.000000,29.000004 
M130.046204,261.968628 
	C130.578781,265.018890 131.111374,268.069183 132.263535,271.689697 
	C134.879059,272.870270 136.031113,271.865540 136.037659,269.158691 
	C136.045715,265.826202 135.798035,262.469208 136.118332,259.167206 
	C136.548096,254.736618 134.857330,253.501175 130.472610,253.521881 
	C95.814857,253.685638 61.155983,253.607346 26.497469,253.628342 
	C24.753922,253.629410 23.010515,253.859833 20.927612,254.007538 
	C20.927612,259.528625 20.819530,264.511047 21.025810,269.480408 
	C21.063583,270.390381 22.380045,271.247223 23.106256,272.128601 
	C23.800550,271.219574 24.984058,270.366119 25.094881,269.390808 
	C25.394230,266.756317 25.237080,264.069977 26.151033,261.219696 
	C60.749554,261.179932 95.348076,261.140137 130.046204,261.968628 
M30.999847,247.999435 
	C30.999847,247.999435 30.979721,248.028000 31.220114,248.770813 
	C32.945431,249.130615 34.667519,249.782425 36.396603,249.801544 
	C45.718781,249.904663 55.042698,249.851135 64.366013,249.850983 
	C83.345619,249.850677 102.325745,249.911484 121.304016,249.752274 
	C123.160355,249.736710 126.029381,248.868530 126.681793,247.539017 
	C129.837997,241.107208 126.509560,236.193314 119.399780,236.190201 
	C91.762810,236.178101 64.125816,236.171661 36.488911,236.214600 
	C34.522583,236.217651 32.556900,236.636063 30.590919,236.861313 
	C30.676174,237.235687 30.761429,237.610062 30.712685,238.870163 
	C30.642937,241.530777 30.573189,244.191406 30.010639,246.894897 
	C29.874502,247.164581 29.738367,247.434265 29.602226,247.703949 
	C30.058889,247.809784 30.515553,247.915619 30.999847,247.999435 
M31.205402,233.855255 
	C32.932957,234.217987 34.659786,234.892822 36.388180,234.896866 
	C64.523087,234.962555 92.658195,234.955307 120.793243,234.933762 
	C126.803627,234.929153 127.153183,234.507095 127.164871,228.270599 
	C127.176857,221.875229 126.597527,221.156525 120.551476,221.148819 
	C92.249985,221.112686 63.948315,221.104126 35.647156,221.207840 
	C34.080914,221.213562 32.518684,222.315689 30.727100,223.811401 
	C30.799107,226.913315 30.871113,230.015213 31.205402,233.855255 
M180.705673,29.760592 
	C161.186203,15.687810 136.209579,17.423765 119.145332,34.255295 
	C116.766914,36.601276 115.002663,35.843109 112.547684,34.878963 
	C108.039650,33.108517 103.475945,30.827328 98.770470,30.334658 
	C84.731781,28.864796 70.253090,38.961720 67.753975,55.376400 
	C67.437828,57.452896 65.858673,60.081680 64.089424,61.078243 
	C44.417435,72.158844 35.400719,90.036140 40.180237,112.185501 
	C44.642155,132.863037 60.174030,151.142334 84.539200,147.584305 
	C87.702187,147.122406 88.406601,148.557907 89.056770,151.276764 
	C95.711433,179.105087 112.716492,197.226364 140.382050,204.859863 
	C144.657013,206.039429 145.839981,207.888870 145.803192,212.089966 
	C145.617966,233.245712 145.788773,254.404419 145.657532,275.560974 
	C145.632996,279.515594 146.621017,281.294861 150.985275,281.135864 
	C159.303909,280.832794 167.645126,280.902374 175.969421,281.114166 
	C179.730331,281.209839 181.375092,280.219849 181.296616,276.112610 
	C181.077042,264.621857 181.221634,253.124161 181.221680,241.629211 
	C181.221817,216.640167 181.225067,191.651138 181.215897,166.662094 
	C181.214935,164.023544 181.758698,161.109665 177.490906,161.184906 
	C170.496185,161.308243 163.494354,161.105362 156.503586,161.312378 
	C155.048676,161.355453 153.406540,162.320953 152.232132,163.312943 
	C147.636642,167.194733 142.503418,168.887558 136.501328,168.033279 
	C127.852913,166.802353 120.774063,157.827774 122.627014,149.626785 
	C132.122345,149.626785 141.752396,149.743607 151.377258,149.570740 
	C155.369171,149.499054 158.903580,149.403168 157.953674,155.310745 
	C165.072952,155.310745 171.711868,155.351685 178.348953,155.260681 
	C179.210663,155.248856 180.694412,154.696869 180.814529,154.156174 
	C181.462326,151.240097 183.575058,149.690872 185.790649,151.070847 
	C188.476410,152.743698 190.463669,155.613541 192.488220,158.174850 
	C192.735611,158.487839 191.372086,160.111618 190.709625,161.097366 
	C189.774475,162.488892 187.980057,163.841599 187.962524,165.228699 
	C187.764740,180.885986 187.931549,196.547729 187.762482,212.205704 
	C187.725281,215.651001 189.139252,216.931137 192.242264,217.433899 
	C203.061676,219.186874 212.532471,216.330490 218.513535,207.166092 
	C222.050659,201.746414 223.247559,194.799423 225.762619,187.799393 
	C226.046204,187.839996 227.639160,188.023071 229.215515,188.300339 
	C256.197876,193.046417 279.182343,172.209396 277.225739,144.963486 
	C276.998016,141.792923 277.624481,138.395630 278.589691,135.335159 
	C281.734528,125.363304 280.073883,116.382706 272.769836,109.055595 
	C269.266235,105.540916 264.508820,103.276131 260.314178,100.441887 
	C270.402252,76.302544 263.208038,56.191906 250.575729,44.777134 
	C232.249588,28.217308 212.185211,26.719795 191.193771,39.552601 
	C187.769333,36.302521 184.534454,33.232349 180.705673,29.760592 
M85.537132,159.785492 
	C84.951141,154.833252 82.621651,153.249542 77.246078,152.494064 
	C69.555626,151.413300 61.860474,148.553024 54.843269,145.084961 
	C49.510719,142.449509 45.231060,137.683670 40.422329,133.816986 
	C28.232035,141.160782 20.990486,162.734421 26.460733,176.669495 
	C29.219158,183.696396 34.154133,189.214859 40.789005,192.783005 
	C51.767265,198.686951 63.087177,198.747742 74.289314,193.206665 
	C80.218597,210.479675 87.296730,217.079590 100.011711,217.512177 
	C109.418419,217.832199 119.129181,212.124451 122.378555,204.036148 
	C104.970200,194.048386 92.381271,179.779160 85.537132,159.785492 
z"/>
<path fill="#F4FBF6" opacity="1.000000" stroke="none" 
	d="
M301.000000,28.531345 
	C298.708466,24.927114 296.738525,20.627123 294.056824,16.829786 
	C288.871246,9.486887 281.751526,4.548670 273.110657,1.337464 
	C282.259796,1.000000 291.519562,1.000000 301.000000,1.000000 
	C301.000000,10.019698 301.000000,19.041191 301.000000,28.531345 
z"/>
<path fill="#F4FBF6" opacity="1.000000" stroke="none" 
	d="
M273.468658,302.000000 
	C280.439148,298.129211 288.151123,294.548218 293.049225,287.310913 
	C295.718445,283.366974 297.893646,279.088623 300.645813,274.980560 
	C301.000000,283.927795 301.000000,292.855560 301.000000,302.000000 
	C291.980255,302.000000 282.958801,302.000000 273.468658,302.000000 
z"/>
<path fill="#F6FCF8" opacity="1.000000" stroke="none" 
	d="
M25.531321,1.000000 
	C19.927999,5.695259 13.634167,10.138450 7.883730,15.199103 
	C5.266462,17.502422 3.723705,21.026709 1.346780,23.998589 
	C1.000000,16.403925 1.000000,8.807849 1.000000,1.000000 
	C9.019642,1.000000 17.041142,1.000000 25.531321,1.000000 
z"/>
<path fill="#F8FDF9" opacity="1.000000" stroke="none" 
	d="
M4.913168,284.039581 
	C9.908669,292.244751 17.572226,297.197144 25.971058,301.644196 
	C17.743416,302.000000 9.486832,302.000000 1.000000,302.000000 
	C1.000000,294.647430 1.000000,287.292450 1.275415,279.458710 
	C1.734168,278.967926 1.917507,278.955902 2.100845,278.943909 
	C2.100845,278.943909 2.286068,279.255402 2.223077,279.790131 
	C3.077779,281.563110 3.995471,282.801361 4.913168,284.039581 
z"/>
<path fill="#B4E4C1" opacity="1.000000" stroke="none" 
	d="
M2.141340,278.629822 
	C1.917507,278.955902 1.734168,278.967926 1.275415,278.989990 
	C1.000000,278.555542 1.000000,278.111115 1.000001,277.333313 
	C1.393946,277.438599 1.787891,277.877167 2.141340,278.629822 
z"/>
<path fill="#FDFEFD" opacity="1.000000" stroke="none" 
	d="
M181.002625,29.961384 
	C184.534454,33.232349 187.769333,36.302521 191.193771,39.552601 
	C212.185211,26.719795 232.249588,28.217308 250.575729,44.777134 
	C263.208038,56.191906 270.402252,76.302544 260.314178,100.441887 
	C264.508820,103.276131 269.266235,105.540916 272.769836,109.055595 
	C280.073883,116.382706 281.734528,125.363304 278.589691,135.335159 
	C277.624481,138.395630 276.998016,141.792923 277.225739,144.963486 
	C279.182343,172.209396 256.197876,193.046417 229.215515,188.300339 
	C227.639160,188.023071 226.046204,187.839996 225.762619,187.799393 
	C223.247559,194.799423 222.050659,201.746414 218.513535,207.166092 
	C212.532471,216.330490 203.061676,219.186874 192.242264,217.433899 
	C189.139252,216.931137 187.725281,215.651001 187.762482,212.205704 
	C187.931549,196.547729 187.764740,180.885986 187.962524,165.228699 
	C187.980057,163.841599 189.774475,162.488892 190.709625,161.097366 
	C191.372086,160.111618 192.735611,158.487839 192.488220,158.174850 
	C190.463669,155.613541 188.476410,152.743698 185.790649,151.070847 
	C183.575058,149.690872 181.462326,151.240097 180.814529,154.156174 
	C180.694412,154.696869 179.210663,155.248856 178.348953,155.260681 
	C171.711868,155.351685 165.072952,155.310745 157.953674,155.310745 
	C158.903580,149.403168 155.369171,149.499054 151.377258,149.570740 
	C141.752396,149.743607 132.122345,149.626785 122.627014,149.626785 
	C120.774063,157.827774 127.852913,166.802353 136.501328,168.033279 
	C142.503418,168.887558 147.636642,167.194733 152.232132,163.312943 
	C153.406540,162.320953 155.048676,161.355453 156.503586,161.312378 
	C163.494354,161.105362 170.496185,161.308243 177.490906,161.184906 
	C181.758698,161.109665 181.214935,164.023544 181.215897,166.662094 
	C181.225067,191.651138 181.221817,216.640167 181.221680,241.629211 
	C181.221634,253.124161 181.077042,264.621857 181.296616,276.112610 
	C181.375092,280.219849 179.730331,281.209839 175.969421,281.114166 
	C167.645126,280.902374 159.303909,280.832794 150.985275,281.135864 
	C146.621017,281.294861 145.632996,279.515594 145.657532,275.560974 
	C145.788773,254.404419 145.617966,233.245712 145.803192,212.089966 
	C145.839981,207.888870 144.657013,206.039429 140.382050,204.859863 
	C112.716492,197.226364 95.711433,179.105087 89.056770,151.276764 
	C88.406601,148.557907 87.702187,147.122406 84.539200,147.584305 
	C60.174030,151.142334 44.642155,132.863037 40.180237,112.185501 
	C35.400719,90.036140 44.417435,72.158844 64.089424,61.078243 
	C65.858673,60.081680 67.437828,57.452896 67.753975,55.376400 
	C70.253090,38.961720 84.731781,28.864796 98.770470,30.334658 
	C103.475945,30.827328 108.039650,33.108517 112.547684,34.878963 
	C115.002663,35.843109 116.766914,36.601276 119.145332,34.255295 
	C136.209579,17.423765 161.186203,15.687810 181.002625,29.961384 
z"/>
<path fill="#F9FDFA" opacity="1.000000" stroke="none" 
	d="
M85.667297,160.159500 
	C92.381271,179.779160 104.970200,194.048386 122.378555,204.036148 
	C119.129181,212.124451 109.418419,217.832199 100.011711,217.512177 
	C87.296730,217.079590 80.218597,210.479675 74.289314,193.206665 
	C63.087177,198.747742 51.767265,198.686951 40.789005,192.783005 
	C34.154133,189.214859 29.219158,183.696396 26.460733,176.669495 
	C20.990486,162.734421 28.232035,141.160782 40.422329,133.816986 
	C45.231060,137.683670 49.510719,142.449509 54.843269,145.084961 
	C61.860474,148.553024 69.555626,151.413300 77.246078,152.494064 
	C82.621651,153.249542 84.951141,154.833252 85.667297,160.159500 
z"/>
<path fill="#FDFEFD" opacity="1.000000" stroke="none" 
	d="
M30.943119,233.117126 
	C30.871113,230.015213 30.799107,226.913315 31.312010,223.381683 
	C62.997536,222.951965 94.098152,222.951965 125.505417,222.951965 
	C125.505417,226.514130 125.505417,229.580887 125.505417,233.117126 
	C93.794563,233.117126 62.368843,233.117126 30.943119,233.117126 
z"/>
<path fill="#FBFDFC" opacity="1.000000" stroke="none" 
	d="
M30.503441,246.852020 
	C30.573189,244.191406 30.642937,241.530777 31.258661,238.424622 
	C62.906593,237.979065 94.008545,237.979065 125.296890,237.979065 
	C125.296890,241.637619 125.296890,244.666870 125.296890,248.028000 
	C93.571243,248.028000 62.275482,248.028000 30.979721,248.028000 
	C30.979721,248.028000 30.999847,247.999435 30.937067,247.690735 
	C30.750671,247.205368 30.627056,247.028702 30.503441,246.852020 
z"/>
<path fill="#FEFFFE" opacity="1.000000" stroke="none" 
	d="
M25.261047,261.404205 
	C25.237080,264.069977 25.394230,266.756317 25.094881,269.390808 
	C24.984058,270.366119 23.800550,271.219574 23.106258,272.128601 
	C22.380045,271.247223 21.063583,270.390381 21.025810,269.480408 
	C20.819530,264.511047 20.927612,259.528625 20.927612,254.007538 
	C23.010515,253.859833 24.753922,253.629410 26.497469,253.628342 
	C61.155983,253.607346 95.814857,253.685638 130.472610,253.521881 
	C134.857330,253.501175 136.548096,254.736618 136.118332,259.167206 
	C135.798035,262.469208 136.045715,265.826202 136.037659,269.158691 
	C136.031113,271.865540 134.879059,272.870270 132.114212,270.972809 
	C131.676437,267.037750 131.388000,263.819550 130.903595,260.278259 
	C129.607010,259.675354 128.506699,259.152618 127.405678,259.151123 
	C94.744530,259.106964 62.083206,259.086395 29.422482,259.210876 
	C28.032570,259.216156 26.648069,260.640778 25.261047,261.404205 
z"/>
<path fill="#50BF70" opacity="1.000000" stroke="none" 
	d="
M31.099918,248.399414 
	C62.275482,248.028000 93.571243,248.028000 125.296890,248.028000 
	C125.296890,244.666870 125.296890,241.637619 125.296890,237.979065 
	C94.008545,237.979065 62.906593,237.979065 31.325661,237.981750 
	C30.761429,237.610062 30.676174,237.235687 30.590919,236.861313 
	C32.556900,236.636063 34.522583,236.217651 36.488911,236.214600 
	C64.125816,236.171661 91.762810,236.178101 119.399780,236.190201 
	C126.509560,236.193314 129.837997,241.107208 126.681793,247.539017 
	C126.029381,248.868530 123.160355,249.736710 121.304016,249.752274 
	C102.325745,249.911484 83.345619,249.850677 64.366013,249.850983 
	C55.042698,249.851135 45.718781,249.904663 36.396603,249.801544 
	C34.667519,249.782425 32.945431,249.130615 31.099918,248.399414 
z"/>
<path fill="#41BA63" opacity="1.000000" stroke="none" 
	d="
M31.074261,233.486191 
	C62.368843,233.117126 93.794563,233.117126 125.505417,233.117126 
	C125.505417,229.580887 125.505417,226.514130 125.505417,222.951965 
	C94.098152,222.951965 62.997536,222.951965 31.425755,222.929718 
	C32.518684,222.315689 34.080914,221.213562 35.647156,221.207840 
	C63.948315,221.104126 92.249985,221.112686 120.551476,221.148819 
	C126.597527,221.156525 127.176857,221.875229 127.164871,228.270599 
	C127.153183,234.507095 126.803627,234.929153 120.793243,234.933762 
	C92.658195,234.955307 64.523087,234.962555 36.388180,234.896866 
	C34.659786,234.892822 32.932957,234.217987 31.074261,233.486191 
z"/>
<path fill="#C6EAD0" opacity="1.000000" stroke="none" 
	d="
M25.706041,261.311951 
	C26.648069,260.640778 28.032570,259.216156 29.422482,259.210876 
	C62.083206,259.086395 94.744530,259.106964 127.405678,259.151123 
	C128.506699,259.152618 129.607010,259.675354 130.610229,260.391205 
	C130.324081,260.918335 130.135345,261.009338 129.946594,261.100342 
	C95.348076,261.140137 60.749554,261.179932 25.706041,261.311951 
z"/>
<path fill="#4FBF6E" opacity="1.000000" stroke="none" 
	d="
M129.996399,261.534485 
	C130.135345,261.009338 130.324081,260.918335 130.806183,260.714355 
	C131.388000,263.819550 131.676437,267.037750 131.804413,270.687683 
	C131.111374,268.069183 130.578781,265.018890 129.996399,261.534485 
z"/>
<path fill="#B4E4C1" opacity="1.000000" stroke="none" 
	d="
M4.914418,283.704620 
	C3.995471,282.801361 3.077779,281.563110 2.236433,279.970825 
	C3.180410,280.867767 4.048041,282.118713 4.914418,283.704620 
z"/>
<path fill="#50BF70" opacity="1.000000" stroke="none" 
	d="
M30.257040,246.873459 
	C30.627056,247.028702 30.750671,247.205368 30.923250,247.701736 
	C30.515553,247.915619 30.058889,247.809784 29.602228,247.703949 
	C29.738367,247.434265 29.874502,247.164581 30.257040,246.873459 
z"/>
</svg>